#N canvas 0 0 1350 664 10;
#X obj 173 112 cnv 15 279 541 empty empty Cul-O-Petic 85 12 0 16 #ff9191
#ffffff 0;
#X obj 193 616 dac~;
#X obj 228 407 vsl 15 64 0 0.05 0 0 empty empty empty 0 -9 0 10 #800040
#ffffff #000000 0 1;
#X obj 193 476 *~;
#X obj 194 132 bng 23 250 50 0 empty empty empty 17 7 0 10 #800040
#ffffff #000000;
#N canvas 0 0 1366 680 percnoise1 1;
#X obj 85 393 osc~;
#X obj 139 425 *~;
#X floatatom 85 369 5 0 0 0 - - -, f 5;
#X obj 154 290 osc~;
#X floatatom 154 266 5 0 0 0 - - -, f 5;
#X obj 154 321 *~;
#X obj 223 290 osc~;
#X floatatom 223 266 5 0 0 0 - - -, f 5;
#X obj 274 455 *~;
#X obj 197 351 noise~;
#X obj 197 388 *~;
#X obj 154 218 random 500;
#X obj 154 241 + 250;
#X obj 85 321 random 500;
#X obj 85 344 + 1500;
#X obj 33 76 inlet;
#X obj 165 76 inlet;
#X obj 209 76 inlet;
#X obj 297 76 inlet;
#X obj 274 486 outlet~;
#X obj 223 218 random 50;
#X msg 123 241 292;
#X msg 51 344 442;
#X obj 121 76 inlet;
#X obj 253 76 inlet;
#X obj 223 189 spigot 0;
#X obj 77 76 inlet;
#X obj 296 160 t b b b;
#X obj 296 353 pack f f f;
#X obj 353 324 f 0;
#X obj 408 324 f 0;
#X obj 340 413 line~;
#X msg 296 378 \$2 \$3;
#X obj 340 461 delay;
#X obj 340 442 bng 15 250 50 0 empty empty empty 17 7 0 10 #fcfcfc
#000000 #000000;
#X msg 408 370 0 \$1;
#X msg 194 241 100;
#X obj 223 241 + 100;
#X text 33 59 1.note on;
#X text 79 42 2.note vel;
#X text 121 59 3.attack;
#X text 165 42 4.decay;
#X text 209 59 5.noise vol;
#X obj 341 76 inlet;
#X obj 341 116 t b f;
#X obj 433 76 inlet;
#X text 253 42 6.detune;
#X text 433 59 9 detune range;
#X text 341 42 8 detune freq;
#X text 297 59 7 random pitch delayed;
#X text 790 177 teaecetyrannis \; 2020;
#X connect 0 0 1 0;
#X connect 1 0 8 0;
#X connect 2 0 0 0;
#X connect 3 0 5 0;
#X connect 4 0 3 0;
#X connect 5 0 1 1;
#X connect 6 0 5 1;
#X connect 7 0 6 0;
#X connect 8 0 19 0;
#X connect 9 0 10 0;
#X connect 10 0 8 0;
#X connect 11 0 12 0;
#X connect 12 0 4 0;
#X connect 13 0 14 0;
#X connect 14 0 2 0;
#X connect 15 0 27 0;
#X connect 16 0 30 1;
#X connect 17 0 10 1;
#X connect 18 0 11 0;
#X connect 18 0 13 0;
#X connect 20 0 37 0;
#X connect 21 0 4 0;
#X connect 22 0 2 0;
#X connect 23 0 29 1;
#X connect 24 0 25 1;
#X connect 25 0 20 0;
#X connect 26 0 28 1;
#X connect 27 0 28 0;
#X connect 27 1 29 0;
#X connect 27 2 25 0;
#X connect 28 0 32 0;
#X connect 29 0 28 2;
#X connect 29 0 33 1;
#X connect 30 0 35 0;
#X connect 31 0 8 1;
#X connect 32 0 31 0;
#X connect 32 0 34 0;
#X connect 33 0 30 0;
#X connect 34 0 33 0;
#X connect 35 0 31 0;
#X connect 36 0 7 0;
#X connect 37 0 7 0;
#X connect 43 0 44 0;
#X connect 44 0 37 0;
#X connect 44 1 37 1;
#X connect 45 0 20 1;
#X restore 193 383 pd percnoise1;
#X obj 277 338 bng 15 250 50 0 empty empty empty 17 7 0 10 #fcfcfc
#000000 #000000;
#X obj 277 239 delay \$1;
#X obj 262 162 hsl 64 15 1 4 0 0 empty empty empty -2 -8 0 10 #800040
#ffffff #000000 0 1;
#X obj 241 338 / \$1;
#X obj 221 222 bng 15 250 50 0 empty empty empty 17 7 0 10 #fcfcfc
#000000 #000000;
#X obj 277 270 spigot 0;
#X obj 260 436 sig~;
#X obj 260 462 vd~ pndel;
#X obj 385 285 vsl 15 64 0 0.05 0 0 empty empty empty 0 -9 0 10 #800040
#ffffff #000000 0 1;
#X text 201 296 decay;
#X text 326 336 noise vol;
#X obj 260 535 s~ \$0-del;
#X obj 463 242 loadbang;
#X obj 321 434 r~ \$0-del;
#X obj 385 407 vsl 15 64 0 1 0 0 empty empty empty 0 -9 0 10 #800040
#ffffff #000000 0 0;
#X text 205 436 vol;
#X obj 385 384 tgl 15 0 empty empty empty 17 7 0 10 #800040 #ffffff
#000000 0 1;
#X text 327 383 delay I-O;
#X text 326 455 delay vol;
#X obj 214 507 spigot~;
#X text 296 411 delay time;
#X floatatom 262 185 5 0 0 0 - - -, f 5;
#X text 181 262 attack;
#X obj 416 222 tgl 15 0 empty empty empty 17 7 0 10 #800040 #ffffff
#000000 0 1;
#X obj 416 243 tgl 15 0 empty empty empty 17 7 0 10 #800040 #ffffff
#000000 0 1;
#X obj 208 338 +;
#X obj 221 263 nbx 4 14 0 1e+037 0 0 empty empty empty 0 -8 0 10 #fcfcfc
#000000 #000000 0 256 0;
#X obj 235 297 nbx 4 14 0 1e+037 0 0 empty empty empty 0 -8 0 10 #fcfcfc
#000000 #000000 0 256 0;
#X obj 260 412 nbx 3 14 0 1e+037 0 0 empty empty empty 0 -8 0 10 #fcfcfc
#000000 #000000 0 256 0;
#X obj 385 535 vsl 15 64 0 1 0 0 empty empty empty 0 -9 0 10 #800040
#ffffff #000000 0 1;
#X obj 219 564 *~ 1;
#X obj 253 564 *~ 1;
#X msg 328 552 1;
#X msg 356 552 \$1;
#X obj 416 588 tgl 15 0 empty empty empty 17 7 0 10 #fcfcfc #000000
#000000 0 1;
#X obj 391 616 invert;
#X obj 292 592 spigot;
#X obj 336 592 spigot;
#X obj 292 616 spigot;
#X obj 336 616 spigot;
#X obj 416 535 bng 15 250 50 0 empty empty empty 17 7 0 10 #fcfcfc
#000000 #000000;
#X obj 397 483 metro;
#X obj 260 535 s~ \$0-del;
#X obj 362 196 hsl 64 15 0 100 0 0 empty empty empty -2 -8 0 10 #800040
#ffffff #000000 0 1;
#X obj 416 264 tgl 15 0 empty empty empty 17 7 0 10 #800040 #ffffff
#000000 0 1;
#X obj 317 315 spigot;
#X obj 79 167 randomF 0.8;
#X obj 79 190 + 0.2;
#X obj 321 476 *~;
#X obj 362 163 hsl 64 15 50 150 0 0 empty empty empty -2 -8 0 10 #800040
#ffffff #000000 0 1;
#X text 375 222 detune;
#X text 362 145 detune range;
#X text 362 178 detune freq;
#X text 351 243 rp delayed;
#X text 351 264 rp at bang;
#X text 255 145 rp delay time;
#X obj 273 509 delwrite~ pndel 5000;
#X connect 2 0 3 1;
#X connect 3 0 1 1;
#X connect 3 0 1 0;
#X connect 3 0 62 0;
#X connect 4 0 5 0;
#X connect 4 0 7 0;
#X connect 4 0 47 0;
#X connect 4 0 32 0;
#X connect 4 0 51 0;
#X connect 4 0 52 0;
#X connect 5 0 3 0;
#X connect 6 0 5 6;
#X connect 7 0 11 0;
#X connect 8 0 27 0;
#X connect 9 0 7 1;
#X connect 10 0 32 0;
#X connect 10 0 33 0;
#X connect 11 0 6 0;
#X connect 12 0 13 0;
#X connect 13 0 25 0;
#X connect 13 0 17 0;
#X connect 14 0 5 4;
#X connect 18 0 6 0;
#X connect 19 0 54 0;
#X connect 20 0 54 1;
#X connect 22 0 25 1;
#X connect 25 1 36 0;
#X connect 25 1 37 0;
#X connect 27 0 9 1;
#X connect 27 0 10 0;
#X connect 29 0 5 5;
#X connect 30 0 11 1;
#X connect 31 0 9 0;
#X connect 32 0 31 0;
#X connect 32 0 5 2;
#X connect 33 0 5 3;
#X connect 33 0 31 1;
#X connect 34 0 12 0;
#X connect 34 0 47 1;
#X connect 35 0 39 0;
#X connect 35 0 38 0;
#X connect 36 0 1 0;
#X connect 37 0 1 1;
#X connect 38 0 42 0;
#X connect 38 0 44 0;
#X connect 39 0 43 0;
#X connect 39 0 45 0;
#X connect 40 0 41 0;
#X connect 40 0 42 1;
#X connect 40 0 43 1;
#X connect 40 0 46 0;
#X connect 41 0 45 1;
#X connect 41 0 44 1;
#X connect 42 0 36 1;
#X connect 43 0 37 1;
#X connect 44 0 37 1;
#X connect 45 0 36 1;
#X connect 46 0 35 0;
#X connect 47 0 40 0;
#X connect 49 0 5 7;
#X connect 50 0 51 1;
#X connect 51 0 6 0;
#X connect 52 0 53 0;
#X connect 53 0 5 1;
#X connect 54 0 62 0;
#X connect 55 0 5 8;
